<?xml version="1.0" encoding="utf-8"?>
<!-- Generator: Adobe Illustrator 20.1.0, SVG Export Plug-In . SVG Version: 6.00 Build 0)  -->
<svg version="1.1" id="Layer_1" xmlns="http://www.w3.org/2000/svg" xmlns:xlink="http://www.w3.org/1999/xlink" x="0px" y="0px"
	 viewBox="0 0 265 265" style="enable-background:new 0 0 265 265;" xml:space="preserve">
<style type="text/css">
	.st0{fill:none;}
	.st1{font-family:'MonotypeCorsiva';}
	.st2{font-size:36px;}
</style>
<rect x="67.4" y="102.8" class="st0" width="174.5" height="34.2"/>
<text transform="matrix(1 0 0 1 67.4156 127.5394)" class="st1 st2">sided news</text>
<rect x="157.1" y="102.8" class="st0" width="84.8" height="34.2"/>
<g>
	<g>
		<g>
			<path d="M33.6,95.8c1.2-4.6,4.2-8.6,8.6-10.6c3.4-1.6,4.8-1.6,4.6,2.5c-0.1,2.6-0.5,5.2-1.1,7.7c-2.6,10.8-8.9,20.1-15.5,28.8
				c-0.7,0.9,2.1,4.5,3.1,3.9c9.1-5,18.6-9.3,28.5-12.7c0.5-0.2-1.8-4.4-3.1-3.9c-9.9,3.4-19.3,7.6-28.5,12.7c1,1.3,2.1,2.6,3.1,3.9
				c8.5-11.4,19.4-27,16.7-42.2c-0.7-3.7-3.4-6.7-7.3-6c-6.3,1.1-10.8,6.2-12.4,12.1C29.9,93.5,33.4,96.6,33.6,95.8L33.6,95.8z"/>
		</g>
	</g>
	<g>
		<g>
			<path d="M58.3,144c-1.2,4.6-4.2,8.6-8.6,10.6c-3.4,1.6-4.8,1.6-4.6-2.5c0.1-2.6,0.5-5.2,1.1-7.7c2.6-10.8,8.9-20.1,15.5-28.8
				c0.7-0.9-2.1-4.5-3.1-3.9c-9.1,5-18.6,9.3-28.5,12.7c-0.5,0.2,1.8,4.4,3.1,3.9c9.9-3.4,19.3-7.6,28.5-12.7
				c-1-1.3-2.1-2.6-3.1-3.9c-8.5,11.4-19.4,27-16.7,42.2c0.7,3.7,3.4,6.7,7.3,6c6.3-1.1,10.8-6.2,12.4-12.1
				C62,146.3,58.6,143.2,58.3,144L58.3,144z"/>
		</g>
	</g>
</g>
</svg>
