<?xml version="1.0" encoding="utf-8"?>
<!-- Generator: Adobe Illustrator 20.1.0, SVG Export Plug-In . SVG Version: 6.00 Build 0)  -->
<svg version="1.1" xmlns="http://www.w3.org/2000/svg" xmlns:xlink="http://www.w3.org/1999/xlink" x="0px" y="0px"
	 viewBox="0 0 960 560" style="enable-background:new 0 0 960 560;" xml:space="preserve">
<style type="text/css">
	.st0{fill:#FF886C;}
	.st1{fill:#73ABFF;}
	.st2{display:none;}
	.st3{display:inline;fill:#FFFFFF;}
	.st4{display:inline;opacity:0.45;}
	.st5{fill:#4259AE;}
	.st6{fill:#FD0101;}
	.st7{fill:#394DA7;}
	.st8{fill:#F6F8FA;}
	.st9{fill:#F7F8FA;}
	.st10{fill:#32439C;}
	.st11{fill:#FC2422;}
	.st12{fill:#FC1915;}
	.st13{fill:#F0F1F6;}
	.st14{fill:#F0F2F6;}
	.st15{fill:#F1F2F6;}
	.st16{fill:#F1F3F6;}
</style>
<g id="Layer_1">
	<rect x="475.6" class="st0" width="538.3" height="560"/>
	<rect x="-59.8" class="st1" width="540.5" height="560"/>
</g>
<g id="Layer_3" class="st2">
	<rect x="-140" y="-40" class="st3" width="1209" height="238.4"/>
</g>
<g id="Layer_2" class="st2">
	<g class="st4">
		<path class="st5" d="M663.3,247.1c0.6,0.1,1.3,0.3,1.8,0.4c-1.6,2.8-3.2,5.5-6,10.3c-0.7-1.7-1.3-3-1.8-4.3
			C659.3,251.3,661.3,249.2,663.3,247.1z"/>
		<path class="st5" d="M675.2,237.6c-0.1,0.9,0,2.5-0.2,2.5c-1.3,0.3-2.6,0.2-3.9,0.2C672.5,239.5,673.8,238.5,675.2,237.6z"/>
		<path class="st5" d="M668.2,242.5c0.4,1,0.8,2,1.2,3c-0.8-0.6-1.7-1.2-2.5-1.8C667.3,243.2,667.8,242.9,668.2,242.5z"/>
		<path class="st5" d="M666.2,244.3c-0.7,0.7-1.4,1.4-2.1,2.1C664.7,245.7,665.4,245,666.2,244.3z"/>
		<g>
			<path class="st6" d="M875.1,328.2c0,41.9,0,83.5,0,125.5c-20.3,0-40.6,0-61.4,0c0-15.9,0-31.7,0-47.9c-22.9,0-45.1,0-68.1,0
				c0,15.9,0,31.8,0,47.9c-19.4,0-38.1,0-57.2,0c0-21.9,0-43.5,0-65.5c-4.8,0.6-6.4,3.9-7.2,7.4c-1.8,7.9-3.8,15.9-4.7,24
				c-1.7,15.4-9.2,26.2-23.4,32c-22.7,9.1-47.3-4.1-47.5-29.1c0-8.5,0-16.9,0-25.6c9.1,0,17.6,0,26.7,0c0,7.7,0.1,15.2-0.1,22.6
				c-0.1,4.4,1.4,6.5,6,6.4c4.6-0.1,6.6-1.8,6.6-6.6c-0.1-28.5,0-57,0-85.5c0-1.8,0-3.6,0-5.6C721.7,328.2,798.2,328.2,875.1,328.2z
				"/>
			<path class="st7" d="M663.3,247.1c0.2-0.2,0.5-0.5,0.7-0.7c0.7-0.7,1.4-1.4,2.1-2.1c0.2-0.2,0.5-0.4,0.7-0.6
				c0.8,0.6,1.7,1.2,2.5,1.8c-0.4-1-0.8-2-1.2-3c1-0.7,1.9-1.4,2.9-2.1c1.3,0,2.7,0.1,3.9-0.2c0.3-0.1,0.1-1.6,0.2-2.5
				c19.8-11,40.6-18.2,63.6-17.9c17.7,0.3,35.5-1.2,52.9,0.8c25.5,2.8,49.3,11.5,67.8,30.6c10.5,10.9,16.9,23.7,15.9,39.5
				c-0.6,10-0.1,20-0.1,30.4c-76.7,0-153.3,0-230.5,0c0-4.2,0-8.5,0-12.7c0-8.7,0.2-17.3,0-26c-0.3-11.7,4.7-20.8,12.5-28.8
				c0.6,1.3,1.1,2.6,1.8,4.3c2.8-4.8,4.4-7.5,6-10.3C664.5,247.4,663.9,247.2,663.3,247.1z M707,255.3c-4.9,3.7-9.7,7.3-14.7,11.1
				c-5.1-3.8-9.8-7.3-15.6-11.6c1.3,4.3,2.3,7.5,3.3,10.6c2.5,8.1,2.5,8.1-4.1,13.1c-2.6,2-5.2,4.1-8.7,7c6.2,0,10.9,0.2,15.5-0.1
				c2.9-0.2,4.1,0.9,4.8,3.6c1.3,4.8,3,9.5,4.9,15.4c1.8-5.6,3.4-9.8,4.5-14.2c0.9-3.7,2.5-5.2,6.4-4.8c4.3,0.4,8.7,0.1,14.3,0.1
				c-4.8-3.7-8.4-6.7-12.2-9.3c-2.7-1.8-2.9-3.7-1.9-6.6C705,264.8,705.9,260,707,255.3l0.2,0L707,255.3z M839.1,255.3
				c-5,3.4-10,6.9-15,10.3c-2.5-1.9-4.8-3.7-7.1-5.3c-2.3-1.6-4.7-3.1-8.1-5.3c1.9,5.9,3,10.2,4.6,14.3c0.9,2.5,0.7,4.1-1.8,5.8
				c-4,2.7-7.7,5.9-12.7,9.8c6.3,0,11.1,0.1,15.8,0c2.5-0.1,3.8,0.7,4.5,3.3c1.3,4.9,3.1,9.7,5,15.7c1.9-6,3.5-10.9,4.9-15.7
				c0.7-2.5,2-3.4,4.6-3.3c4.8,0.2,9.6,0.1,15.9,0.1c-4.8-3.7-8.2-6.8-12-9.1c-3.4-2-3.4-4.1-2.2-7.3c1.5-4.2,2.5-8.6,3.7-12.9
				c0.1-0.4,0.1-0.7,0.2-1.1C839.5,254.9,839.3,255.1,839.1,255.3z M766,285.1c6.1,0,11.9,0,18.5,0c-4.4-3.4-7.7-6.4-11.5-8.8
				c-3.1-1.9-3.2-3.9-2.1-7c1.5-4,2.4-8.2,3.6-12.3c-0.4-0.2-0.9-0.4-1.3-0.6c-4.5,3.3-9,6.6-13.6,10c-4.9-3.6-9.7-7.2-15.6-11.6
				c1.8,5.9,3,10.4,4.6,14.7c1.1,3,0.7,4.7-2.1,6.6c-3.9,2.6-7.5,5.7-12.3,9.5c7.5,0,13.4,0,19.3,0c2,6.2,3.9,12,6.1,18.9
				C761.9,297.5,763.8,291.7,766,285.1z"/>
			<path class="st8" d="M839.5,255.7c-1.2,4.3-2.2,8.7-3.7,12.9c-1.2,3.2-1.2,5.3,2.2,7.3c3.8,2.2,7.1,5.3,12,9.1
				c-6.3,0-11.1,0.2-15.9-0.1c-2.6-0.1-3.9,0.8-4.6,3.3c-1.4,4.9-3,9.7-4.9,15.7c-1.9-6-3.7-10.8-5-15.7c-0.7-2.7-2-3.4-4.5-3.3
				c-4.8,0.2-9.5,0-15.8,0c5-3.9,8.7-7.1,12.7-9.8c2.5-1.6,2.7-3.2,1.8-5.8c-1.5-4.2-2.7-8.4-4.6-14.3c3.4,2.2,5.8,3.7,8.1,5.3
				c2.3,1.6,4.5,3.4,7.1,5.3c5-3.4,10-6.9,15-10.3C839.2,255.5,839.3,255.6,839.5,255.7z"/>
			<path class="st8" d="M766,285.1c-2.2,6.6-4.1,12.4-6.3,19.2c-2.2-6.9-4.1-12.7-6.1-18.9c-5.9,0-11.8,0-19.3,0
				c4.9-3.8,8.4-6.9,12.3-9.5c2.8-1.8,3.2-3.6,2.1-6.6c-1.6-4.3-2.8-8.8-4.6-14.7c5.9,4.4,10.7,7.9,15.6,11.6
				c4.6-3.4,9.1-6.7,13.6-10c0.4,0.2,0.9,0.4,1.3,0.6c-1.2,4.1-2.1,8.3-3.6,12.3c-1.2,3.1-1,5.1,2.1,7c3.8,2.4,7.1,5.4,11.5,8.8
				C777.8,285.1,772,285.1,766,285.1z"/>
			<path class="st9" d="M707,255.2c-1.1,4.8-2,9.6-3.4,14.3c-0.9,2.9-0.8,4.8,1.9,6.6c3.8,2.6,7.4,5.6,12.2,9.3
				c-5.6,0-10,0.3-14.3-0.1c-4-0.4-5.6,1.1-6.4,4.8c-1,4.4-2.7,8.6-4.5,14.2c-1.9-5.9-3.6-10.6-4.9-15.4c-0.7-2.7-1.9-3.8-4.8-3.6
				c-4.6,0.2-9.3,0.1-15.5,0.1c3.6-2.9,6.1-5,8.7-7c6.6-5,6.6-5,4.1-13.1c-1-3.1-1.9-6.3-3.3-10.6c5.7,4.3,10.5,7.8,15.6,11.6
				C697.3,262.6,702.2,258.9,707,255.2L707,255.2z"/>
			<path class="st8" d="M839.1,255.3c0.2-0.2,0.3-0.4,0.5-0.7c-0.1,0.4-0.1,0.7-0.2,1.1C839.3,255.6,839.2,255.5,839.1,255.3z"/>
			<path class="st9" d="M707,255.3l0.2,0C707.3,255.2,707,255.2,707,255.3C707,255.2,707,255.3,707,255.3z"/>
		</g>
	</g>
	<g class="st4">
		<path class="st10" d="M354.8,218.8c4.4,6.6,9.8,12.3,9.8,20.5c0,1.7-0.3,3.4,0,5c0.4,1.8,1.4,3.5,2.1,5.2c1.6-1,3.9-1.6,4.6-3.1
			c3-5.7,5.5-11.7,8.4-17.5c1-1.9,2.7-3.4,4-5.2c1.4,1.7,3.4,3.2,4.2,5.2c4.5,11.5,4.4,22.5-5.2,31.8c-2.5,2.4-3.4,5-1.3,8
			c5.1,7,5.2,15.2,5.9,23.4c0.4,4.2,2,8.2,2.9,12.4c1.6,6.9,3.5,13.8,4.5,20.9c0.6,4.4-3,6.7-6.7,8.3c-11.7,4.7-21.4,1.3-30.1-7.1
			c-6.8-6.6-8.9-6.8-15.2,0.3c-4.3,4.9-7.7,10.7-11.1,16.4c-1.3,2.2-2.2,3.5-5.1,3.5c-55.7-0.1-111.3-0.1-167,0
			c-2.9,0-4.2-0.7-4.5-3.8c-0.6-6-1.6-11.9-2.6-17.8c-1.9-11.2,0.1-21.7,6.6-30.9c3.7-5.2,7.8-10.4,14.5-12.3c0.2,0,0.3-0.1,0.5-0.1
			c13.5-9,27.2-5.8,41.1-1.2c13.6,4.5,27.2,9,41.1,12.3c6.8,1.6,14.3,1.3,21.3,0.4c4.5-0.6,9.1-3.1,13-5.8c5-3.5,9.5-7.9,14-12.1
			c9.2-8.6,20-14.1,32.3-17c8.4-2,8.7-3.8,8.2-12.3C344.6,236,348.9,227.1,354.8,218.8z M274.2,337c-1-4.1-3.4-8.2-2.5-11.2
			c0.9-2.9,5.3-4.8,9.1-8c-4.8,0-9.1,1.3-11.4-0.3c-2.5-1.8-2.9-6.3-4.3-9.6c-0.1-0.2-0.4-0.2-1.4-0.7c-0.4,9.6-5.5,13.1-15,10.8
			c3.1,2.9,7.2,4.6,8.3,7.5c1,2.7-1.1,6.7-2.1,11.1c3.5-2.1,6.6-4,9.9-6C267.8,332.6,270.8,334.6,274.2,337z M236.6,318
			c-10.7,3.3-14.3-2.3-16.4-11.5c0,11.3-6.7,12.7-16.3,11.1c4.3,3.4,8.4,5.1,9.5,8c1,2.7-1.3,6.6-2.4,10.8c3.5-2.1,6.6-5.5,9.5-5.3
			c3.3,0.2,6.4,3.5,9.5,5.4C225.2,328.3,227.4,322.5,236.6,318z M292.2,318.3c3.4,2.8,7.5,4.5,8.5,7.4c1,2.7-1.4,6.6-2.5,11.1
			c3.9-2.6,6.8-4.5,9.7-6.4c3.1,2,6.1,4,10,6.6c-1.4-4.5-2.4-7.9-3.5-11.4c3.1-2.4,6.1-4.6,9.1-6.8c-9.6,1.7-14.4-2.4-15.4-12.1
			c-1.8,4-2.1,8.6-4.5,10.4C301.3,318.9,296.8,317.9,292.2,318.3z M168.8,336.6c2.7-1.8,5.2-4.8,8.1-5.1c2.9-0.3,6,2,9.4,3.4
			c-0.2-3.5-1.5-7.3-0.3-9.9c1.3-2.7,4.9-4.3,7.5-6.4c-9.7,2.1-14.1-2.6-15.6-12c-0.9,10.3-6.1,13.7-16,11.7
			C171,322.5,173.4,328.2,168.8,336.6z"/>
		<path class="st11" d="M163.6,353.2c1.3-0.1,2.6-0.2,4-0.2c52.3,0,104.7,0,157,0c1.1,0,2.3,0,4.4,0c-3,11.6-6.5,22.5-8.5,33.7
			c-2.6,14.8-5.9,29.8-0.1,44.6c0.4,0.9,0.8,2,0.7,2.9c-1.2,8.8,3.6,15.2,8.5,21.6c2,2.6,3.7,5.6,5.1,8.6c2,4.4,0.6,6.6-4.3,6.7
			c-6.3,0.1-12.7-0.2-19,0.1c-3.9,0.2-6-0.9-5.7-5.2c0.1-1.3-0.8-2.7-1.2-4.1c-1.4,0.6-2.8,1.4-4.2,1.7c-1.6,0.3-4,0.7-4.9-0.1
			c-4.9-4.7-9.4-9.9-14.1-14.9c-1.9-2-1.7-3.9,0.7-5.3c13.5-8,14.5-21.3,12.9-34.3c-1-7.9-5.4-15.6-9-23c-1-2.1-4.6-3.6-7.2-4
			c-11-1.6-22.1-2.4-33.1-4c-8.3-1.2-10.6-0.4-14.4,7c-2.8,5.5-6,10.9-7.9,16.7c-1.1,3.3-0.3,7.3,0.2,10.9
			c2.5,16.6,15.7,26.9,24.2,40c4.4,6.8,2.8,11.2-5.3,12.3c-11,1.6-13.9-0.2-19.4-9.6c-3.1-5.4-7.5-10.1-10.8-15.4
			c-1.8-2.9-3.3-6.6-3.3-9.9c0-6.3-0.6-11.6-6.5-15.4c-3.2-2-5.6-5.2-8.4-7.8c-4.4-4-5.2-7.7-2.9-13.4c1.1-2.8,2.4-5.5,3.3-8.3
			c0.3-1-0.6-2.3-1-3.5c-1.1,0.4-2.9,0.6-3.3,1.4c-4.2,8.2-10.1,15.8-10.5,25.5c-0.2,5.2-0.6,10.4-0.2,15.5c0.3,4.7,1.5,9.4,2.4,14
			c0.4,2.1,1.8,4.3,1.4,6.2c-1.5,7.8,3.6,11.7,8.2,16.3c2.2,2.2,5.3,5.6,4.9,7.7c-0.9,4.4-5.6,5.4-10,5.9c-9.8,1-15.7-2.9-21-11.5
			c-5.9-9.5-5.6-19.2-5.7-29.2c0-5-0.1-9.6-3.2-14.2c-1.8-2.7-1.3-7.4-0.7-10.9c1.8-9,4.5-17.7,6.3-26.7c0.8-4,0.1-8.3,0.1-12.5
			c-0.7-0.2-1.5-0.4-2.2-0.7c-2.3,2.6-4.6,5.2-7,7.7c-3.3,3.5-5.9,6.9-6.4,12.4c-0.4,4.7-3.8,9.2-5.9,13.8
			c-5.4-4.6-4.6-17.3,0.7-21.7c8.1-6.8,14.8-14.8,16.5-25.8c0.1-0.5,0.6-0.9,1-1.4c0,1.1,0,2.3,0,3.4
			C160.3,355.5,161.9,354.3,163.6,353.2z M324.1,354.1c0,0.1,0,0.2,0,0.4c0.5,0,1,0,1.5,0c0-0.1,0-0.2,0-0.4
			C325.1,354.1,324.6,354.1,324.1,354.1z"/>
		<path class="st12" d="M163.6,353.2c-1.6,1.1-3.3,2.3-5.1,3.5c0-1.1,0-2.3,0-3.4C160.2,353.3,161.9,353.2,163.6,353.2z"/>
		<path class="st13" d="M274.2,337c-3.4-2.4-6.4-4.4-9.4-6.5c-3.2,2-6.3,3.9-9.9,6c1-4.4,3.2-8.3,2.1-11.1c-1.1-2.8-5.2-4.5-8.3-7.5
			c9.5,2.4,14.6-1.2,15-10.8c1,0.5,1.3,0.5,1.4,0.7c1.4,3.3,1.9,7.8,4.3,9.6c2.2,1.6,6.6,0.3,11.4,0.3c-3.9,3.2-8.2,5.1-9.1,8
			C270.8,328.8,273.2,332.9,274.2,337z"/>
		<path class="st14" d="M236.6,318c-9.1,4.5-11.3,10.3-6.7,18.5c-3.2-2-6.3-5.3-9.5-5.4c-2.9-0.1-6,3.2-9.5,5.3
			c1.1-4.2,3.4-8.1,2.4-10.8c-1.1-2.9-5.3-4.6-9.5-8c9.6,1.6,16.3,0.2,16.3-11.1C222.3,315.7,225.9,321.3,236.6,318z"/>
		<path class="st15" d="M292.2,318.3c4.6-0.3,9.1,0.7,11.5-1.1c2.4-1.8,2.7-6.5,4.5-10.4c1,9.6,5.8,13.8,15.4,12.1
			c-3,2.2-5.9,4.5-9.1,6.8c1.1,3.5,2.1,6.9,3.5,11.4c-3.9-2.6-7-4.6-10-6.6c-3,2-5.8,3.9-9.7,6.4c1.2-4.6,3.5-8.4,2.5-11.1
			C299.7,322.8,295.6,321,292.2,318.3z"/>
		<path class="st16" d="M168.8,336.6c4.5-8.4,2.2-14.1-6.9-18.4c9.9,2,15.1-1.4,16-11.7c1.5,9.4,5.9,14.1,15.6,12
			c-2.6,2.1-6.3,3.7-7.5,6.4c-1.2,2.6,0.1,6.4,0.3,9.9c-3.4-1.3-6.5-3.7-9.4-3.4C174.1,331.8,171.5,334.8,168.8,336.6z"/>
		<path class="st12" d="M324.1,354.1c0.5,0,1,0,1.5,0c0,0.1,0,0.2,0,0.4c-0.5,0-1,0-1.5,0C324.1,354.3,324.1,354.2,324.1,354.1z"/>
	</g>
</g>
</svg>
