<?xml version="1.0" encoding="utf-8"?>
<!-- Generator: Adobe Illustrator 20.1.0, SVG Export Plug-In . SVG Version: 6.00 Build 0)  -->
<svg version="1.1" id="Layer_1" xmlns="http://www.w3.org/2000/svg" xmlns:xlink="http://www.w3.org/1999/xlink" x="0px" y="0px"
	 viewBox="0 0 80.2 80.2" style="enable-background:new 0 0 80.2 80.2;" xml:space="preserve">
<style type="text/css">
	.st0{fill:url(#SVGID_1_);}
	.st1{fill:url(#SVGID_2_);}
	.st2{fill:none;}
</style>
<g>
	<g>
		<g>
			<linearGradient id="SVGID_1_" gradientUnits="userSpaceOnUse" x1="24.239" y1="24.1825" x2="56.0199" y2="24.1825">
				<stop  offset="0" style="stop-color:#21409A"/>
				<stop  offset="9.836037e-02" style="stop-color:#393F91"/>
				<stop  offset="0.2922" style="stop-color:#633D80"/>
				<stop  offset="0.5629" style="stop-color:#953762"/>
				<stop  offset="0.8968" style="stop-color:#D72635"/>
				<stop  offset="1" style="stop-color:#ED1C24"/>
			</linearGradient>
			<path class="st0" d="M27.8,16C29,11.4,32,7.4,36.3,5.4c3.4-1.6,4.8-1.6,4.6,2.5c-0.1,2.6-0.5,5.2-1.1,7.7
				c-2.6,10.8-8.9,20.1-15.5,28.8c-0.7,0.9,2.1,4.5,3.1,3.9c9.1-5,18.6-9.3,28.5-12.7c0.5-0.2-1.8-4.4-3.1-3.9
				c-9.9,3.4-19.3,7.6-28.5,12.7c1,1.3,2.1,2.6,3.1,3.9c8.5-11.4,19.4-27,16.7-42.2c-0.7-3.7-3.4-6.7-7.3-6
				c-6.3,1.1-10.8,6.2-12.4,12.1C24.1,13.7,27.6,16.8,27.8,16L27.8,16z"/>
		</g>
	</g>
	<g>
		<g>
			<linearGradient id="SVGID_2_" gradientUnits="userSpaceOnUse" x1="24.1801" y1="56.0175" x2="55.961" y2="56.0175">
				<stop  offset="0" style="stop-color:#21409A"/>
				<stop  offset="9.836037e-02" style="stop-color:#393F91"/>
				<stop  offset="0.2922" style="stop-color:#633D80"/>
				<stop  offset="0.5629" style="stop-color:#953762"/>
				<stop  offset="0.8968" style="stop-color:#D72635"/>
				<stop  offset="1" style="stop-color:#ED1C24"/>
			</linearGradient>
			<path class="st1" d="M52.5,64.2c-1.2,4.6-4.2,8.6-8.6,10.6c-3.4,1.6-4.8,1.6-4.6-2.5c0.1-2.6,0.5-5.2,1.1-7.7
				c2.6-10.8,8.9-20.1,15.5-28.8c0.7-0.9-2.1-4.5-3.1-3.9c-9.1,5-18.6,9.3-28.5,12.7c-0.5,0.2,1.8,4.4,3.1,3.9
				c9.9-3.4,19.3-7.6,28.5-12.7c-1-1.3-2.1-2.6-3.1-3.9c-8.5,11.4-19.4,27-16.7,42.2c0.7,3.7,3.4,6.7,7.3,6
				C49.6,79,54.1,73.9,55.8,68C56.2,66.5,52.8,63.4,52.5,64.2L52.5,64.2z"/>
		</g>
	</g>
</g>
<rect x="0" class="st2" width="80.2" height="80.2"/>
</svg>
